<svg width="244" height="180" viewBox="0 0 244 180" fill="none" xmlns="http://www.w3.org/2000/svg">
<g clip-path="url(#clip0_1_4)">
<path d="M143.688 179.153C135.237 179.209 126.786 179.306 118.335 179.314C105.857 179.326 93.3784 179.274 80.542 179.045C79.3 178.713 78.4161 178.481 77.5313 178.473C73.3459 178.433 69.1605 178.465 64.9751 178.438C64.2792 178.434 63.585 178.26 62.8899 178.165C63.5158 177.448 64.0717 177.396 64.6231 177.309C68.5133 176.694 72.5666 176.428 74.361 171.317C74.4754 170.992 74.7538 170.699 75.0162 170.49C80.1227 166.409 81.3789 159.09 85.7142 154.163C91.4918 154.145 97.0389 154.156 102.586 154.116C105.879 154.093 108.691 151.183 109.349 147.301C110.288 146.426 110.973 145.399 111.878 144.852C114.321 143.377 115.797 141.156 116.956 138.303C117.777 136.28 119.289 134.583 120.638 132.895C123.197 129.69 126.151 129.047 129.569 131.606C132.974 134.67 136.165 137.755 139.544 140.543C141.64 142.271 144.021 143.547 146.066 145.044C144.562 145.28 142.227 145.27 142.146 145.757C141.75 148.118 139.431 150.097 140.882 152.907C141.051 153.234 140.549 154.468 140.145 154.648C138.874 155.21 137.518 155.649 136.165 155.81C133.465 156.129 131.363 157.199 129.935 160.094C128.698 162.602 127.149 164.951 125.494 167.126C124.823 168.007 123.381 168.877 122.501 168.655C119.003 167.773 117.618 170.013 116.391 173.102C115.396 175.602 113.394 176.342 111.046 175.615C110.292 175.381 109.449 175.329 108.669 175.429C105.597 175.821 102.54 176.392 99.4628 176.723C97.7251 176.91 96.359 176.342 95.6497 174.057C95.0806 172.226 93.6975 170.885 91.7631 171.681C88.8915 172.864 86.5165 174.829 84.731 178.446C101.187 178.446 117.271 178.446 133.585 178.447C137.114 178.453 140.413 178.457 143.707 178.577C143.695 178.846 143.69 178.999 143.688 179.153Z" fill="#3E9BE9"/>
<path d="M241.932 123.02C241.077 125.348 240.385 127.777 239.339 129.986C230.566 148.524 218.052 162.636 201.24 171.437C192.354 176.089 182.97 178.689 173.163 179.08C171.693 179.139 170.224 179.229 168.425 179.085C164.082 178.726 160.068 178.588 156.128 178.263C156.831 177.686 157.43 177.057 158.098 176.938C163.02 176.06 168.003 175.538 172.873 174.387C176.214 173.596 179.519 172.263 182.633 170.647C185.893 168.954 188.938 166.694 192.003 164.546C192.851 163.951 193.473 162.9 194.134 161.998C194.862 161.006 195.328 159.511 196.238 158.992C199.015 157.408 199.736 154.669 199.921 151.562C200.118 148.26 202.068 146.47 204.139 144.762C205.453 143.679 206.752 142.528 208.18 141.68C212.471 139.129 214.792 133.966 219.345 131.454C222.466 129.731 224.557 125.557 227.34 122.475C230.104 122.468 232.639 122.389 235.169 122.481C237.426 122.563 239.678 122.832 241.932 123.02Z" fill="#3187DF"/>
<path d="M129.434 131.501C126.151 129.047 123.197 129.69 120.638 132.895C119.289 134.583 117.777 136.28 116.956 138.303C115.797 141.156 114.321 143.377 111.878 144.852C110.973 145.399 110.288 146.426 109.334 147.081C109.116 145.157 108.603 143.874 106.785 143.97C105.54 142.811 104.295 141.652 102.774 140.252C101.887 139.824 101.278 139.477 100.667 139.474C91.4386 139.439 82.2096 139.423 72.9815 139.487C72.1579 139.492 71.337 140.075 70.5152 140.39C70.2341 140.424 69.954 140.457 69.3626 140.27C67.6321 139.845 66.2136 139.506 64.7898 139.466C61.0397 139.36 58.5582 135.816 59.5538 131.514C66.109 131.514 72.4363 131.651 78.7556 131.454C82.0926 131.349 85.6104 131.16 87.6211 126.96C87.9819 126.552 88.2062 126.206 88.435 125.724C88.4376 125.587 88.4447 125.311 88.6132 125.262C91.6993 122.988 94.6373 120.798 97.5239 118.523C98.7784 117.533 99.8972 116.319 101.136 115.298C102.259 114.371 103.571 113.713 104.604 112.679C107.064 110.219 109.392 107.587 111.803 105.061C113.492 103.291 114.288 103.545 115.311 105.866C115.953 107.321 116.79 108.661 117.586 110.246C120.119 115.465 122.504 120.562 125.139 125.482C126.311 127.671 127.988 129.505 129.434 131.501Z" fill="#44A5ED"/>
<path d="M106.636 36.1145C105.607 35.1162 104.577 34.1167 103.284 32.8552C102.08 32.3995 101.139 32.0406 100.199 32.0362C91.1665 31.9922 82.1352 32.0098 73.103 32.0054C72.4461 32.0054 71.6739 32.2245 71.1614 31.9052C70.469 31.4738 69.6659 30.7054 69.5027 29.9184C69.3875 29.3647 70.2031 27.9942 70.6943 27.9315C72.9434 27.6442 74.3628 26.6546 74.4435 23.8433C74.4515 23.5472 74.8424 23.2731 75.041 22.9759C76.9302 20.1414 78.6102 17.2442 78.8168 13.4686C78.8611 12.6562 79.9489 11.9011 80.5899 11.1559C81.2486 10.3898 81.9969 9.71721 82.6183 8.91366C83.3551 7.9615 83.9748 6.89046 84.692 5.91519C85.2479 5.16007 85.8755 4.4743 86.7018 3.75C92.858 3.72688 98.7828 3.71147 104.898 3.70707C105.466 3.71037 105.844 3.70155 106.381 3.69165C106.752 3.69055 106.964 3.69275 107.389 3.70816C108.458 3.71256 109.312 3.70486 110.327 3.69385C110.7 3.69275 110.913 3.69385 111.358 3.70816C119.501 3.73678 127.413 3.75219 135.278 3.95473C134.427 4.89147 133.696 5.7853 132.808 6.36099C130.447 7.88995 128.031 9.31213 125.613 10.7211C122.781 12.3711 119.779 13.7075 117.121 15.6624C115.002 17.2189 113.401 19.6747 111.354 21.393C110.076 22.4662 108.388 22.8878 106.898 23.6407C105.595 24.3001 104.798 25.0618 106.025 26.7944C108.138 29.7786 109.364 33.1832 108.993 37.1107C108.102 36.7695 107.369 36.4415 106.636 36.1145Z" fill="#5BC3F7"/>
<path d="M86.4704 3.7566C85.8755 4.4743 85.2478 5.16007 84.692 5.91519C83.9748 6.89047 83.355 7.96151 82.6183 8.91366C81.9968 9.71722 81.2486 10.3898 80.5899 11.1559C79.9489 11.9011 78.8611 12.6563 78.8168 13.4686C78.6102 17.2442 76.9302 20.1414 75.041 22.9759C74.8424 23.2731 74.4514 23.5472 74.4435 23.8433C74.3628 26.6546 72.9434 27.6442 70.6942 27.9315C70.2031 27.9943 69.3875 29.3647 69.5027 29.9184C69.6658 30.7054 70.469 31.4738 71.1614 31.9053C71.6739 32.2245 72.446 32.0054 73.103 32.0054C82.1351 32.0098 91.1664 31.9922 100.199 32.0362C101.139 32.0406 102.08 32.3995 103.13 32.7605C85.5023 32.973 67.766 33.0467 50.0288 33.0159C48.4285 33.0126 46.8283 32.34 44.9683 31.7236C44.4045 31.345 44.1013 31.2206 43.7972 31.0962C43.7972 31.0962 43.9071 31.105 43.8052 31.0158C43.4089 30.8078 43.1137 30.6878 42.8176 30.5678C42.8176 30.5678 42.9089 30.5381 42.8282 30.4401C42.4745 30.176 42.2023 30.0108 41.9292 29.8457C41.9292 29.8457 42.0144 29.805 41.9168 29.7412C41.6615 29.5364 41.5028 29.3944 41.3441 29.2535C41.3441 29.2535 41.5143 29.2216 41.4053 29.204C41.1305 29.0367 40.9647 28.887 40.7989 28.7362C40.7989 28.7362 40.9824 28.7119 40.8778 28.6932C40.6074 28.5314 40.4416 28.3894 40.2758 28.2474C40.2758 28.2474 40.4212 28.2386 40.3299 28.1803C40.0799 27.9722 39.923 27.8236 39.7652 27.675C39.7652 27.675 39.8822 27.7179 39.8317 27.5925C39.462 27.1544 39.1437 26.8395 38.8254 26.5258C38.8254 26.5258 38.9026 26.5313 38.9088 26.3464C38.4478 22.5279 36.5204 19.5085 37.9726 15.1088C40.2173 8.31155 44.2325 3.77861 50.6937 3.73678C56.6566 3.69716 62.6195 3.72247 68.5825 3.72687C74.5454 3.73238 80.5083 3.7467 86.4704 3.7566Z" fill="#60CBF9"/>
<path d="M85.9615 121.889C85.8719 121.738 85.8259 121.571 85.8081 121.114C85.6619 120.641 85.5289 120.442 85.3959 120.243C83.6476 119.448 81.9117 118.014 80.1466 117.964C71.7873 117.725 63.4201 117.908 55.0555 117.85C50.8222 117.822 47.3204 115.835 44.5189 111.738C44.2919 109.732 44.0543 108.166 43.8983 106.589C43.6979 104.56 43.2493 102.48 43.4532 100.497C44.221 93.0107 49.9392 89.8284 54.6087 89.7084C60.0805 89.5675 65.5584 89.7205 71.032 89.6423C78.8106 89.5334 86.5874 89.3297 94.319 89.3473C93.3722 91.0535 92.6416 92.7751 91.5264 94.0542C90.1753 95.6029 88.6593 97.2398 86.9323 98.0312C81.0739 100.717 77.6164 105.592 75.9559 112.392C75.4417 114.497 76.3628 114.984 77.9693 115.16C80.0748 115.391 82.214 115.662 84.2345 116.33C86.575 117.103 88.2018 118.909 88.224 121.922C87.333 121.91 86.6468 121.899 85.9615 121.889Z" fill="#50B8F5"/>
<path d="M85.4836 154.171C81.3789 159.09 80.1227 166.409 75.0162 170.49C74.7538 170.699 74.4754 170.992 74.361 171.317C72.5666 176.428 68.5133 176.694 64.6231 177.309C64.0717 177.396 63.5158 177.448 62.8899 178.165C63.585 178.261 64.2792 178.434 64.9751 178.438C69.1605 178.465 73.3459 178.433 77.5313 178.473C78.4161 178.481 79.3 178.713 80.3479 178.977C68.2802 179.158 56.0493 179.202 43.8185 179.249C42.9151 179.252 42.0126 179.275 40.7218 179.259C40.22 179.229 40.1056 179.231 39.9921 179.233C36.7403 178.738 33.9592 177.321 32.1479 173.552C32.7801 166.101 35.5062 163.275 41.5578 163.18C50.8258 163.034 60.092 162.803 69.3591 162.638C73.3202 162.567 73.9842 162.003 74.736 157.532C75.0295 155.787 75.5472 154.614 77.3903 154.606C80.0881 154.596 82.7859 154.329 85.4836 154.171Z" fill="#44A5ED"/>
<path d="M82.5705 58.591C81.5367 57.6377 80.503 56.6834 79.2796 55.5903C79.0899 55.4516 79.0499 55.2458 78.8806 55.1159C77.8247 54.866 76.9391 54.6414 76.0534 54.6403C53.3347 54.6183 30.6151 54.6128 7.89636 54.6403C6.94421 54.6414 5.99206 54.9893 5.03902 55.1753C4.74912 55.15 4.45922 55.1247 3.98048 55.0003C3.79165 54.9001 3.78367 54.9232 3.78367 54.9232C3.78367 54.9232 3.60991 54.822 3.4787 54.582C2.9911 54.1593 2.6347 53.9766 2.27831 53.7949C2.27831 53.7949 2.2588 53.7025 2.32706 53.4922C2.98843 46.9812 3.77657 46.1689 9.29357 46.1667C17.0917 46.1645 24.8898 46.1612 32.851 46.2713C34.3767 46.3076 35.7402 46.2327 37.3218 46.1557C38.5541 46.1535 39.5692 46.1535 40.7466 46.2669C42.2723 46.3054 43.6358 46.2305 45.2281 46.1557C47.4524 46.1524 49.4472 46.1513 51.6148 46.2669C54.7895 46.2999 57.7905 46.2151 61.0166 46.1293C62.7445 46.126 64.2472 46.1227 65.8732 46.2283C66.5647 46.2647 67.133 46.192 67.9114 46.1138C73.4257 45.995 78.729 45.8816 84.0076 45.9553C83.8622 46.487 83.809 46.8954 83.613 47.1684C81.558 50.0337 81.7291 51.0431 83.5164 53.9237C84.5333 55.5628 84.8347 57.7841 85.2815 59.7358C84.2602 59.3494 83.4153 58.9696 82.5705 58.591Z" fill="#5BC3F7"/>
<path d="M59.3225 131.51C58.5583 135.816 61.0397 139.36 64.7898 139.466C66.2136 139.506 67.6321 139.845 69.227 140.218C50.5687 140.423 31.7366 140.458 12.9036 140.492C10.4363 140.496 7.96907 140.494 5.27662 140.336C5.05144 140.175 5.03193 139.982 4.89717 139.868C3.79164 139.327 2.82087 138.901 1.85098 138.475C1.85098 138.475 1.88734 138.486 1.95561 138.282C3.80318 131.307 3.80318 131.308 10.1181 131.515C10.5294 131.53 10.9408 131.531 11.3513 131.522C19.0678 131.342 26.7834 131.094 34.5 131C42.0631 130.908 49.628 130.958 57.1921 130.992C57.9031 130.996 58.6123 131.33 59.3225 131.51Z" fill="#50B8F5"/>
<path d="M129.569 131.606C127.987 129.505 126.311 127.671 125.139 125.482C122.504 120.562 120.119 115.465 117.552 110.034C114.863 99.9696 113.542 90.1751 115.195 79.9017C115.469 79.1025 115.668 78.4861 115.811 77.8543C119.148 63.0854 125.673 50.879 137.479 42.7323C139.885 42.2667 142.184 42.2293 143.759 39.8263C144.226 39.1152 145.307 38.7872 146.161 38.5858C148.826 37.9561 151.512 37.4399 154.201 36.9577C154.797 36.851 155.436 37.0667 156.055 37.1339C153.484 38.0662 150.837 38.7916 148.352 39.965C130.712 48.2978 119.533 62.9015 117.186 84.8628C114.289 111.965 130.435 137.19 154.082 143.934C166.333 147.428 177.986 145.507 189.44 139.656C189.104 140.646 188.639 141.489 188.109 142.275C187.471 143.221 186.776 144.116 185.934 145.091C183.262 146.064 180.807 147.215 178.256 147.854C169.681 150 161.119 149.321 152.447 147.175C150.29 146.387 148.282 145.705 146.273 145.025C144.021 143.547 141.64 142.271 139.544 140.543C136.165 137.755 132.974 134.67 129.569 131.606Z" fill="#60BBEF"/>
<path d="M235.018 64.141C234.006 64.1685 232.993 64.196 231.714 63.9968C230.568 63.191 229.724 62.2059 228.805 62.1057C225.255 61.7204 221.67 61.7667 218.123 61.3638C215.173 61.0291 212.258 60.2916 209.212 59.6026C208.511 58.4401 207.926 57.4065 207.312 56.1594C206.689 53.828 206.901 51.9248 208.804 50.9132C210.429 50.0491 212.146 49.3281 213.887 48.8514C217.264 47.929 219.929 45.7792 221.843 42.6277C223.62 39.703 225.712 38.7541 228.755 39.9265C229.122 39.943 229.333 39.9518 229.655 40.1026C230.691 41.8396 231.613 43.4357 232.55 45.2343C234.265 48.5102 236.107 51.4966 237.627 54.6833C239.07 57.707 240.179 60.9411 241.434 64.0827C239.764 64.1278 238.093 64.174 236.11 64.1113C235.537 64.0496 235.278 64.0959 235.018 64.141Z" fill="#3E9BE9"/>
<path d="M32.6887 46.1579C24.8907 46.1612 17.0917 46.1645 9.29358 46.1667C3.77658 46.1689 2.98844 46.9813 2.3253 53.5407C-1.08083 49.8333 0.00963644 45.1452 5.06829 43.2783C6.10732 43.2199 6.78996 43.122 7.4726 43.024C7.86623 42.9932 8.25986 42.9635 9.02938 43.057C12.213 43.1154 15.0198 43.0504 17.8266 42.9844C18.3807 42.958 18.9357 42.9315 19.8763 43.0339C23.2363 43.1099 26.2116 43.057 29.186 43.0031C44.8655 42.9547 60.545 42.8974 76.2237 42.8644C84.598 42.8468 92.9724 42.8776 101.346 42.8699C102.161 42.8688 102.977 42.7411 104.022 42.8908C104.25 43.9321 104.248 44.7533 104.061 45.5833C103.506 45.6064 103.136 45.6196 102.548 45.6163C101.308 45.6218 100.286 45.6427 99.0355 45.6614C93.8819 45.6956 88.9572 45.7319 84.0324 45.7682C78.729 45.8816 73.4257 45.995 67.7864 46.0148C66.8839 45.9873 66.3165 46.0533 65.75 46.1204C64.2473 46.1226 62.7445 46.126 60.842 46.0148C57.4421 45.984 54.442 46.0665 51.441 46.1491C49.4472 46.1513 47.4524 46.1524 45.0667 46.0401C43.3123 46.0016 41.9487 46.0775 40.5843 46.1535C39.5692 46.1535 38.5542 46.1535 37.1596 46.0401C35.4167 46.0038 34.0523 46.0808 32.6887 46.1579Z" fill="#85DAF8"/>
<path d="M85.7142 154.163C82.7859 154.328 80.0881 154.596 77.3903 154.606C75.5472 154.614 75.0295 155.787 74.736 157.532C73.9842 162.003 73.3202 162.567 69.3591 162.638C60.092 162.803 50.8258 163.034 41.5578 163.18C35.5062 163.275 32.7801 166.101 32.1267 173.366C29.6257 168.816 31.4972 162.936 35 161.032C36.6445 160.137 38.5737 159.525 40.3822 159.495C49.8293 159.342 59.279 159.432 68.7279 159.403C71.9398 159.393 72.2005 159.011 71.8601 155.373C71.6313 152.918 73.6748 150.946 76.5322 150.928C84.9127 150.878 93.2933 150.863 101.674 150.806C105.399 150.781 106.924 148.861 106.798 144.211C108.603 143.873 109.116 145.157 109.181 147.148C108.691 151.183 105.879 154.093 102.586 154.116C97.039 154.156 91.4918 154.145 85.7142 154.163Z" fill="#60BBEF"/>
<path d="M86.7018 3.74998C80.5084 3.74668 74.5454 3.73236 68.5825 3.72686C62.6195 3.72245 56.6566 3.69714 50.6937 3.73677C44.2325 3.77859 40.2173 8.31154 37.9726 15.1087C36.5204 19.5085 38.4478 22.5278 38.9035 26.3904C35.1879 21.3798 34.8235 15.5457 37.2651 9.70069C39.8139 3.59697 44.3823 0.359633 50.3142 0.342021C73.0764 0.273773 95.8386 0.344226 118.759 0.579789C117.4 1.40756 115.891 2.0427 114.364 2.61729C113.297 3.01907 112.206 3.33939 111.125 3.69603C110.913 3.69383 110.7 3.69273 110.246 3.52542C108.956 2.29917 108.004 2.31459 107.175 3.69494C106.964 3.69274 106.752 3.69054 106.324 3.54524C105.641 3.49901 105.175 3.59697 104.709 3.69603C98.7837 3.71145 92.858 3.72687 86.7018 3.74998Z" fill="#85DAF8"/>
<path d="M94.3642 89.1657C86.5874 89.3297 78.8106 89.5333 71.032 89.6423C65.5584 89.7205 60.0805 89.5675 54.6087 89.7083C49.9392 89.8283 44.221 93.0106 43.4532 100.497C43.2493 102.48 43.6979 104.56 43.8983 106.589C44.0543 108.166 44.2919 109.732 44.4834 111.549C37.9788 105.137 40.4522 91.4134 48.9711 87.5057C50.9756 86.5866 53.2594 86.0813 55.4208 86.0593C68.2332 85.9261 81.0474 86.0197 93.8607 85.9768C98.3945 85.9613 100.185 82.6162 98.2526 77.6385C98.2145 77.371 98.312 77.2411 98.4565 77.3413C100.541 78.5851 101.622 80.2847 101.282 83.1082C101.263 83.7411 101.253 84.1627 101.153 84.7065C100.955 85.1193 100.845 85.4088 100.61 85.7918C100.081 86.3829 99.6782 86.8827 99.1365 87.443C98.7491 87.8414 98.5009 88.1783 98.1418 88.5162C98.031 88.5162 97.8102 88.5316 97.6737 88.5679C97.2951 88.7617 97.0549 88.9202 96.6099 89.082C95.7251 89.1117 95.0451 89.1392 94.3642 89.1657Z" fill="#6BD2EF"/>
<path d="M111.358 3.70815C112.206 3.33939 113.296 3.01908 114.364 2.6173C115.891 2.0427 117.4 1.40756 118.99 0.619415C119.735 0.408069 120.407 0.377251 121.335 0.581993C122.907 3.03889 124.754 3.21171 126.509 1.95134C128.431 0.569888 130.079 0.706385 132.008 1.80935C132.825 2.27607 133.981 2.1891 134.946 2.0361C136.277 1.82585 137.557 1.22044 138.885 0.957356C140.318 0.67446 141.78 0.589704 143.228 0.419086C144.883 0.386063 146.539 0.353038 148.558 0.468618C149.658 0.546772 150.393 0.477424 151.129 0.406976C151.649 0.375054 152.17 0.342035 153.024 0.459817C154.095 0.542374 154.833 0.475214 155.571 0.408067C156.089 0.375045 156.608 0.343132 157.428 0.452107C158.152 0.566586 158.575 0.53796 158.998 0.510441C169.906 0.699771 180.687 1.98107 191.085 5.97573C194.414 7.25371 197.59 9.05675 200.852 10.9831C199.906 11.6314 198.945 11.9165 197.833 12.1686C197.3 11.9672 196.918 11.7998 196.481 11.4421C195.249 9.12059 193.454 9.12389 191.386 9.36826C186.889 8.38088 182.58 7.44193 178.152 6.34447C177.432 5.93059 176.843 5.49469 176.231 5.45066C172.802 5.19969 169.367 5.04228 165.895 4.72195C165.547 4.4985 165.238 4.40494 164.718 4.30037C160.54 4.11544 156.572 3.94371 152.372 3.76319C146.535 3.75879 140.929 3.7632 135.325 3.7665C127.413 3.75109 119.501 3.73677 111.358 3.70815Z" fill="#6BD2EF"/>
<path d="M59.5538 131.513C58.6123 131.33 57.9031 130.996 57.1921 130.992C49.628 130.958 42.0631 130.908 34.5 131C26.7834 131.094 19.0678 131.342 11.3512 131.522C10.9408 131.531 10.5294 131.53 10.1181 131.515C3.80317 131.308 3.80316 131.307 1.9485 138.301C-1.36897 134.208 0.13816 129.433 5.52129 128.268C6.61086 128.522 7.33784 128.708 8.06392 128.708C31.6843 128.717 55.3037 128.713 78.9232 128.675C79.7911 128.673 80.6581 128.312 81.5252 128.117C84.129 127.327 86.0448 125.853 85.9269 122.11C86.6468 121.899 87.333 121.91 88.2266 122.163C88.4376 123.375 88.4412 124.344 88.4447 125.311C88.4447 125.311 88.4376 125.587 88.2958 125.782C87.9305 126.326 87.708 126.675 87.4855 127.023C85.6104 131.16 82.0926 131.349 78.7556 131.454C72.4363 131.651 66.109 131.514 59.5538 131.513Z" fill="#60BBEF"/>
<path d="M186.107 145.033C186.776 144.116 187.471 143.221 188.109 142.275C188.639 141.489 189.105 140.646 189.622 139.621C189.646 139.414 189.744 139.333 189.933 139.281C190.326 139.08 190.53 138.93 190.735 138.779C197.731 133.826 203.826 127.803 208.16 119.656C208.404 119.196 209.062 118.761 209.528 118.76C220.771 118.71 232.015 118.72 243.685 118.72C243.104 120.287 242.641 121.535 242.055 122.902C239.678 122.832 237.426 122.563 235.169 122.481C232.639 122.389 230.104 122.468 227.109 122.471C221.807 122.47 216.963 122.364 212.129 122.548C210.972 122.594 209.562 123.296 208.752 124.24C205.441 128.105 202.677 132.695 199.027 136.036C195.122 139.611 190.446 142.08 186.107 145.033Z" fill="#44A5ED"/>
<path d="M82.5917 58.8409C83.4153 58.9696 84.2602 59.3483 85.2824 59.9658C85.0847 65.6436 83.6529 67.8506 79.0039 68.3922C74.455 68.9216 69.8387 68.6795 65.0194 68.7697C52.0226 68.762 39.2563 68.7081 26.4918 68.8325C25.0901 68.8468 23.6965 69.8826 22.1521 70.5232C21.3108 70.9327 20.6166 71.264 19.9224 71.5943C19.7371 68.3459 20.4801 67.1285 23.7488 66.0552C24.7488 66.3106 25.3915 66.5165 26.0334 66.5176C42.7661 66.5308 59.498 66.5319 76.2298 66.4922C77.0065 66.49 77.7822 66.085 78.5588 65.8681C82.3541 64.2478 83.1192 62.9687 82.5917 58.8409Z" fill="#6BD2EF"/>
<path d="M197.983 12.2016C198.945 11.9165 199.906 11.6314 200.928 11.1691C201.609 11.1669 202.29 11.2077 202.84 11.5357C216.392 19.6241 227.435 30.8661 235.413 45.9631C234.365 45.7726 233.451 45.4028 232.536 45.0318C231.613 43.4357 230.691 41.8396 229.616 39.9375C229.174 39.3541 228.884 39.0756 228.549 38.6122C226.817 36.3193 225.198 34.1365 223.425 32.1298C222.121 30.6526 220.618 29.4076 219.165 27.8798C218.658 27.2611 218.192 26.8219 217.611 26.2517C216.58 25.2633 215.661 24.4047 214.656 23.3821C214.081 22.7381 213.645 22.1492 213.095 21.7959C208.069 18.575 203.023 15.3938 197.983 12.2016Z" fill="#60BBEF"/>
<path d="M156.268 37.1515C155.436 37.0667 154.797 36.851 154.201 36.9577C151.512 37.4399 148.826 37.9561 146.161 38.5858C145.307 38.7872 144.226 39.1152 143.759 39.8263C142.184 42.2293 139.886 42.2667 137.541 42.554C140.81 40.4736 144.064 37.9088 147.662 36.7893C152.753 35.2042 158.084 34.5625 163.341 33.771C165.643 33.4243 168.016 33.7039 170.522 33.7017C170.908 33.7028 171.128 33.7028 171.458 33.8008C171.987 33.8349 172.405 33.771 172.989 33.7094C173.372 33.7127 173.591 33.7138 173.888 33.8954C176.054 34.7023 178.142 35.3297 180.416 35.9748C181.792 36.3699 182.981 36.7453 184.228 37.2968C185.041 38.6936 185.798 39.9144 186.555 41.1351C178.297 37.2704 169.715 35.8119 160.835 36.6066C159.38 36.7376 157.933 36.9798 156.268 37.1515Z" fill="#5BC3F7"/>
<path d="M207.34 56.3729C207.926 57.4066 208.511 58.4402 209.257 59.8007C209.716 61.4618 210.016 62.7959 210.315 64.1289C209.456 63.6963 208.338 63.5202 207.785 62.7849C205.928 60.3159 204.272 57.6476 202.396 54.7724C202.132 54.3574 202.013 54.2265 201.892 54.0944C200.296 52.3552 198.701 50.6149 197.04 48.4805C196.818 47.0649 196.663 46.0445 196.51 45.0208C196.512 45.0186 196.515 45.0131 196.606 44.9305C196.812 44.7335 196.916 44.6025 197.146 44.5585C199.229 46.7732 201.215 48.8393 203.1 51.0199C204.578 52.7305 205.931 54.5831 207.34 56.3729Z" fill="#60BBEF"/>
<path d="M210.545 64.1729C210.015 62.7959 209.716 61.4629 209.372 59.9306C212.258 60.2917 215.173 61.0292 218.123 61.3638C221.67 61.7667 225.255 61.7204 228.805 62.1057C229.724 62.2059 230.568 63.1911 231.5 63.9572C224.627 64.1685 217.701 64.1928 210.545 64.1729Z" fill="#44A5ED"/>
<path d="M95.3385 75.7155C89.2896 75.7507 83.2398 75.786 76.7768 75.754C75.1013 75.7353 73.8406 75.7848 72.5799 75.8344C71.6127 75.8201 70.6446 75.8058 69.2483 75.7298C66.9228 75.7441 65.0256 75.8212 63.1284 75.8982C62.5202 75.8927 61.9112 75.8883 60.9395 75.8135C59.2905 75.7992 58.005 75.8542 56.7195 75.9082C55.4677 75.8982 54.215 75.8872 52.5705 75.808C50.7273 75.7816 49.277 75.8256 47.8266 75.8685C47.5305 75.8575 47.2343 75.8454 46.5951 75.7628C44.3069 75.7441 42.361 75.7981 40.4159 75.8509C39.9708 75.841 39.5258 75.8311 38.7155 75.754C33.9494 75.7672 29.5494 75.8476 25.1504 75.9279C24.9757 75.9345 24.802 75.9412 24.3933 75.8212C23.8711 75.677 23.5839 75.6605 23.2957 75.6428C23.1229 75.59 22.95 75.5383 22.7319 75.3104C22.6867 75.1365 22.8126 74.9725 23.0431 74.9725C41.8716 74.9692 60.4705 74.9648 79.2991 74.9626C83.8861 74.9681 88.2435 74.9252 92.5982 75.0099C93.5229 75.0275 94.4413 75.5085 95.3545 75.7617C95.3447 75.7485 95.3385 75.7155 95.3385 75.7155Z" fill="#60CBF9"/>
<path d="M232.55 45.2343C233.451 45.4028 234.365 45.7726 235.469 46.1579C238.011 51.6243 240.376 57.0686 242.706 62.5328C243.141 63.5521 243.117 64.414 241.597 64.1212C240.179 60.9411 239.07 57.7071 237.627 54.6833C236.107 51.4966 234.265 48.5102 232.55 45.2343Z" fill="#4DB1F1"/>
<path d="M81.2974 128.072C80.6582 128.312 79.7911 128.673 78.9232 128.675C55.3037 128.713 31.6843 128.717 8.06394 128.708C7.33697 128.708 6.61088 128.522 5.70926 128.301C17.261 128.118 28.9874 128.025 40.7138 128.003C54.1654 127.977 67.6179 128.015 81.2974 128.072Z" fill="#85DAF8"/>
<path d="M5.26421 55.2436C5.99206 54.9893 6.94421 54.6414 7.89637 54.6403C30.6151 54.6128 53.3347 54.6183 76.0534 54.6403C76.9391 54.6414 77.8248 54.866 78.745 55.1346C78.6945 55.3228 78.6093 55.3624 78.5251 55.4021C54.1796 55.3712 29.834 55.3415 5.26421 55.2436Z" fill="#60CBF9"/>
<path d="M70.7386 140.427C71.337 140.076 72.1579 139.492 72.9815 139.487C82.2096 139.423 91.4386 139.438 100.667 139.474C101.278 139.477 101.887 139.824 102.603 140.175C92.1266 140.382 81.5447 140.423 70.7386 140.427Z" fill="#50B8F5"/>
<path d="M78.3328 65.813C77.7822 66.0849 77.0065 66.49 76.2299 66.4922C59.498 66.5318 42.7662 66.5308 26.0334 66.5175C25.3916 66.5164 24.7488 66.3106 23.9287 66.0739C26.2568 65.8967 28.7631 65.8461 31.6993 65.8439C32.9538 65.8494 33.7783 65.8065 34.6019 65.7646C41.705 65.7646 48.808 65.7657 56.3534 65.8164C57.9661 65.8164 59.1363 65.7646 60.3065 65.7129C66.2402 65.7272 72.173 65.7426 78.3328 65.813Z" fill="#85DAF8"/>
<path d="M156.055 178.449C160.068 178.588 164.082 178.726 168.222 178.999C160.279 179.186 152.21 179.237 143.914 179.22C143.69 178.999 143.695 178.846 143.938 178.575C148.133 178.455 152.094 178.453 156.055 178.449Z" fill="#3A94E6"/>
<path d="M104.247 45.5745C104.248 44.7533 104.25 43.931 104.255 42.8633C106.224 41.2122 107.186 39.2836 106.649 36.3457C107.369 36.4415 108.102 36.7695 108.994 37.3507C109.159 38.567 109.164 39.5302 109.147 40.6926C108.063 43.2232 107.003 45.5591 104.247 45.5745Z" fill="#6BD2EF"/>
<path d="M142.998 0.378348C141.78 0.589694 140.318 0.674454 138.885 0.957349C137.557 1.22043 136.277 1.82584 134.946 2.03609C133.981 2.1891 132.825 2.27606 132.008 1.80934C130.079 0.706378 128.431 0.569881 126.509 1.95134C124.754 3.21171 122.907 3.03889 121.534 0.628226C128.574 0.404772 135.671 0.371744 142.998 0.378348Z" fill="#85DAF8"/>
<path d="M186.564 41.1186C185.798 39.9144 185.041 38.6936 184.403 37.3342C187.036 38.6705 189.55 40.1455 191.89 41.6249C191.175 41.8165 190.635 42.0047 189.997 42.2953C189.787 42.5562 189.675 42.7125 189.565 42.8699C189.179 42.6773 188.793 42.4835 188.245 42.106C187.918 41.8583 187.754 41.7956 187.589 41.7328C187.51 41.7075 187.431 41.6833 187.149 41.516C186.818 41.2694 186.682 41.1813 186.54 41.1098C186.54 41.1098 186.573 41.1021 186.564 41.1186Z" fill="#57BFF7"/>
<path d="M190.095 42.1929C190.635 42.0047 191.175 41.8165 192.051 41.7064C193.595 42.2975 194.804 42.8116 196.016 43.3223C196.019 43.3201 196.016 43.3289 196.044 43.5039C196.22 44.1237 196.368 44.5684 196.515 45.0131C196.515 45.0131 196.512 45.0186 196.317 45.001C194.416 44.6289 192.708 44.2723 191.001 43.9167C190.774 43.7571 190.547 43.5975 190.208 43.1704C190.097 42.6663 190.096 42.4296 190.095 42.1929Z" fill="#60BBEF"/>
<path d="M191.086 44.0896C192.708 44.2723 194.416 44.6289 196.316 45.0043C196.663 46.0445 196.818 47.0649 196.97 48.311C195.034 47.1122 193.103 45.6879 191.086 44.0896Z" fill="#5BC3F7"/>
<path d="M19.9118 71.7913C20.6166 71.264 21.3107 70.9327 22.1547 70.761C22.4739 72.2712 22.6432 73.6219 22.8126 74.9725C22.8126 74.9725 22.6867 75.1365 22.6237 75.218C21.6742 74.1965 20.7886 73.0924 19.9118 71.7913Z" fill="#60CBF9"/>
<path d="M25.3836 75.9925C29.5495 75.8475 33.9494 75.7673 38.5488 75.7684C34.3714 75.9189 29.9945 75.9881 25.3836 75.9925Z" fill="#265587"/>
<path d="M28.9634 42.9447C26.2116 43.0568 23.2363 43.1107 20.082 43.0744C22.848 42.9524 25.7949 42.9195 28.9634 42.9447Z" fill="#60BBEF"/>
<path d="M17.605 42.9283C15.0198 43.0502 12.213 43.1162 9.22441 43.0964C11.8229 42.9656 14.6031 42.9195 17.605 42.9283Z" fill="#60BBEF"/>
<path d="M40.6473 75.931C42.361 75.798 44.307 75.7442 46.4471 75.775C44.7201 75.909 42.7989 75.9596 40.6473 75.931Z" fill="#265587"/>
<path d="M63.3545 75.9727C65.0256 75.821 66.9228 75.7441 69.0408 75.743C67.3688 75.8958 65.4751 75.9705 63.3545 75.9727Z" fill="#265587"/>
<path d="M48.0544 75.9509C49.277 75.8256 50.7274 75.7816 52.3622 75.8223C51.1254 75.9487 49.7043 75.9915 48.0544 75.9509Z" fill="#265587"/>
<path d="M1.9361 138.64C2.82087 138.901 3.79164 139.327 4.73139 139.891C4.59131 140.052 4.48226 140.077 4.37321 140.101C3.58951 139.67 2.8058 139.237 1.9361 138.64Z" fill="#60BBEF"/>
<path d="M60.1434 65.6237C59.1363 65.7644 57.9661 65.816 56.5848 65.7995C57.576 65.6655 58.7781 65.5995 60.1434 65.6237Z" fill="#265587"/>
<path d="M56.9465 75.9827C58.005 75.8541 59.2905 75.7992 60.7569 75.8267C59.6833 75.9585 58.4288 76.008 56.9465 75.9827Z" fill="#265587"/>
<path d="M72.7688 75.9211C73.8406 75.7848 75.1013 75.7354 76.5552 75.7683C75.4843 75.9035 74.2209 75.9552 72.7688 75.9211Z" fill="#265587"/>
<path d="M95.4937 75.8245C95.3386 75.7155 95.3448 75.7485 95.5265 75.7276C96.2526 76.0226 96.7978 76.3375 97.3395 76.6578C97.3351 76.6633 97.3289 76.671 97.3289 76.671C96.7686 76.4255 96.2092 76.1789 95.4937 75.8245Z" fill="#6BD2EF"/>
<path d="M34.4574 65.6788C33.7783 65.8073 32.9538 65.8502 31.9325 65.8293C32.5939 65.7084 33.4538 65.6502 34.4574 65.6788Z" fill="#265587"/>
<path d="M155.364 0.366262C154.833 0.475049 154.096 0.543183 153.216 0.509119C153.768 0.379453 154.463 0.351977 155.364 0.366262Z" fill="#85DAF8"/>
<path d="M150.923 0.367364C150.393 0.47725 149.658 0.546472 148.78 0.515704C149.33 0.386039 150.024 0.356376 150.923 0.367364Z" fill="#85DAF8"/>
<path d="M7.29972 42.9646C6.78995 43.1223 6.1073 43.2204 5.25444 43.2921C5.76598 43.1454 6.44597 43.0263 7.29972 42.9646Z" fill="#60BBEF"/>
<path d="M2.37936 53.9205C2.63469 53.9767 2.99108 54.1597 3.42461 54.4894C3.16219 54.4398 2.82087 54.2436 2.37936 53.9205Z" fill="#85DAF8"/>
<path d="M158.825 0.416839C158.575 0.538812 158.152 0.56737 157.62 0.50034C157.891 0.377268 158.271 0.349808 158.825 0.416839Z" fill="#85DAF8"/>
<path d="M38.8946 26.6854C39.1437 26.8406 39.462 27.1544 39.8104 27.6585C39.5471 27.5143 39.2563 27.1797 38.8946 26.6854Z" fill="#85DAF8"/>
<path d="M189.995 42.2953C190.095 42.4296 190.096 42.6663 190.097 43.0802C190.097 43.2574 189.856 43.2783 189.856 43.2783C189.856 43.2783 189.653 43.1286 189.609 42.9987C189.675 42.7125 189.787 42.5562 189.995 42.2953Z" fill="#5BC3F7"/>
<path d="M42.0161 29.9932C42.2023 30.0109 42.4745 30.1763 42.8388 30.4938C42.6544 30.4773 42.3787 30.3097 42.0161 29.9932Z" fill="#85DAF8"/>
<path d="M42.9301 30.6911C43.1137 30.6878 43.4089 30.808 43.799 31.0803C43.611 31.0925 43.3264 30.9535 42.9301 30.6911Z" fill="#85DAF8"/>
<path d="M187.634 41.8628C187.753 41.7955 187.918 41.8584 188.103 42.016C188.123 42.1098 187.881 42.1484 187.881 42.1484C187.881 42.1484 187.678 41.994 187.634 41.8628Z" fill="#5BC3F7"/>
<path d="M98.1667 77.436C97.8972 77.3171 97.6764 77.1344 97.3918 76.8108C97.3289 76.671 97.3351 76.6633 97.4716 76.7073C97.8422 76.9153 98.0771 77.0783 98.312 77.2412C98.312 77.2412 98.2145 77.3711 98.1667 77.436Z" fill="#6BD2EF"/>
<path d="M23.4172 75.7297C23.5839 75.6594 23.8711 75.677 24.263 75.8144C24.091 75.8957 23.8153 75.8561 23.4172 75.7297Z" fill="#265587"/>
<path d="M43.9133 31.2283C44.1013 31.2205 44.4045 31.3451 44.8167 31.6087C44.6261 31.6186 44.3273 31.4896 43.9133 31.2283Z" fill="#85DAF8"/>
<path d="M235.177 64.175C235.278 64.0958 235.536 64.0497 235.883 64.0717C235.759 64.1629 235.547 64.187 235.177 64.175Z" fill="#44A5ED"/>
<path d="M201.938 54.2353C202.012 54.2264 202.132 54.3576 202.332 54.6002C202.269 54.5991 202.127 54.4878 201.938 54.2353Z" fill="#5BC3F7"/>
<path d="M40.0524 179.323C40.1056 179.231 40.2198 179.229 40.496 179.286C40.4774 179.368 40.295 179.391 40.0524 179.323Z" fill="#265587"/>
<path d="M186.591 41.2506C186.682 41.1814 186.818 41.2693 187.035 41.4583C186.964 41.4924 186.803 41.4418 186.591 41.2506Z" fill="#5BC3F7"/>
<path d="M4.46632 140.202C4.48228 140.077 4.59132 140.052 4.86527 140.004C5.03105 139.982 5.05056 140.175 5.05056 140.273C4.88743 140.347 4.72254 140.324 4.46632 140.202Z" fill="#44A5ED"/>
<path d="M78.6014 55.5027C78.6094 55.3626 78.6936 55.3229 78.9134 55.2645C79.0491 55.2457 79.089 55.4519 79.1085 55.5556C79.128 55.6581 78.8975 55.6912 78.8975 55.6912C78.8975 55.6912 78.6785 55.6041 78.6014 55.5027Z" fill="#265587"/>
<path d="M190.542 138.818C190.529 138.93 190.325 139.081 189.968 139.338C189.994 139.25 190.172 139.054 190.542 138.818Z" fill="#60BBEF"/>
<path d="M3.772 54.9185C3.78227 54.9217 3.78997 54.9005 3.78313 54.8857C3.77628 54.872 3.76174 54.9142 3.772 54.9185Z" fill="#85DAF8"/>
<path d="M39.837 27.8368C39.923 27.8236 40.0799 27.9736 40.3299 28.2647C40.251 28.2713 40.079 28.1356 39.837 27.8368Z" fill="#85DAF8"/>
<path d="M41.4106 29.4219C41.5028 29.3944 41.6606 29.5366 41.9337 29.7913C41.8574 29.8002 41.6677 29.6954 41.4106 29.4219Z" fill="#85DAF8"/>
<path d="M40.8734 28.9101C40.9647 28.8869 41.1296 29.0369 41.4177 29.3026C41.3424 29.307 41.1447 29.1957 40.8734 28.9101Z" fill="#85DAF8"/>
<path d="M85.4358 120.437C85.5288 120.442 85.6609 120.641 85.8719 121.005C85.7913 120.991 85.6326 120.811 85.4358 120.437Z" fill="#60BBEF"/>
<path d="M40.3592 28.407C40.4416 28.3894 40.6065 28.5316 40.8858 28.7995C40.814 28.8051 40.6287 28.686 40.3592 28.407Z" fill="#85DAF8"/>
<path d="M156.127 178.263C152.094 178.453 148.133 178.455 143.942 178.459C140.413 178.457 137.114 178.453 133.652 178.269C139.068 175.198 144.679 172.424 151.021 173.082C152.259 173.211 153.371 173.502 153.382 171.404C153.402 167.584 155.934 165.167 159.303 165.68C162.029 166.095 163.772 164.555 163.901 161.404C163.977 159.557 164.074 157.94 165.599 156.717C166.716 155.822 166.427 154.659 165.105 154.288C162.567 153.578 160.012 152.884 157.43 152.459C153.856 151.872 152.663 150.727 152.597 147.283C161.119 149.321 169.681 150 178.256 147.854C180.807 147.215 183.262 146.064 185.934 145.091C190.446 142.08 195.122 139.611 199.027 136.036C202.677 132.695 205.441 128.105 208.752 124.24C209.562 123.296 210.972 122.594 212.129 122.548C216.963 122.362 221.807 122.47 226.878 122.474C224.557 125.557 222.466 129.731 219.345 131.454C214.792 133.966 212.471 139.129 208.18 141.68C206.752 142.528 205.453 143.679 204.139 144.762C202.068 146.47 200.118 148.26 199.921 151.562C199.736 154.669 199.015 157.408 196.238 158.992C195.328 159.511 194.862 161.006 194.134 161.999C193.473 162.9 192.851 163.951 192.003 164.546C188.938 166.694 185.893 168.954 182.633 170.647C179.519 172.263 176.214 173.596 172.873 174.387C168.003 175.538 163.02 176.06 158.098 176.938C157.43 177.057 156.831 177.686 156.127 178.263Z" fill="#368EE3"/>
<path d="M152.447 147.175C152.663 150.727 153.856 151.872 157.429 152.459C160.012 152.884 162.567 153.578 165.105 154.288C166.427 154.659 166.716 155.822 165.599 156.717C164.074 157.94 163.977 159.557 163.901 161.404C163.772 164.555 162.029 166.095 159.303 165.68C155.934 165.167 153.402 167.584 153.382 171.404C153.371 173.502 152.259 173.211 151.021 173.082C144.679 172.424 139.068 175.198 133.421 178.268C117.271 178.446 101.187 178.446 84.731 178.446C86.5165 174.829 88.8915 172.864 91.7631 171.681C93.6975 170.885 95.0805 172.226 95.6497 174.057C96.359 176.342 97.7251 176.909 99.4628 176.723C102.54 176.392 105.597 175.821 108.669 175.429C109.449 175.329 110.292 175.381 111.046 175.615C113.394 176.342 115.396 175.602 116.391 173.102C117.618 170.013 119.003 167.773 122.501 168.655C123.381 168.877 124.823 168.007 125.494 167.126C127.149 164.951 128.698 162.602 129.935 160.094C131.363 157.199 133.465 156.129 136.165 155.81C137.518 155.649 138.874 155.21 140.145 154.648C140.549 154.468 141.051 153.234 140.881 152.907C139.431 150.097 141.75 148.118 142.146 145.757C142.227 145.27 144.562 145.28 146.066 145.044C148.282 145.705 150.29 146.387 152.447 147.175Z" fill="#3A94E6"/>
<path d="M88.6132 125.262C88.4412 124.344 88.4377 123.375 88.4324 122.166C88.2019 118.909 86.575 117.103 84.2345 116.33C82.2141 115.662 80.0749 115.391 77.9693 115.16C76.3629 114.984 75.4417 114.497 75.9559 112.392C77.6165 105.592 81.074 100.717 86.9323 98.0312C88.6593 97.2398 90.1753 95.6029 91.5264 94.0542C92.6417 92.7751 93.3722 91.0535 94.319 89.3473C95.0451 89.1393 95.7251 89.1118 96.7092 89.1602C97.2783 89.0006 97.5443 88.7661 97.8103 88.5316C97.8103 88.5316 98.031 88.5162 98.2908 88.47C98.7917 88.077 99.0337 87.7292 99.2749 87.3813C99.6783 86.8827 100.081 86.383 100.731 85.761C101.067 85.2866 101.154 84.9355 101.242 84.5843C101.253 84.1627 101.263 83.7411 101.44 83.0246C101.928 82.0988 102.404 81.5077 102.545 80.8252C102.966 78.7899 102.661 76.3308 105.388 76.016C107.222 75.8047 109.046 74.9824 110.852 75.066C113.421 75.1838 113.881 78.1614 115.095 80.0778C113.542 90.1751 114.863 99.9696 117.505 109.84C116.79 108.661 115.953 107.321 115.311 105.866C114.288 103.545 113.492 103.291 111.803 105.061C109.392 107.587 107.063 110.219 104.604 112.679C103.571 113.713 102.259 114.371 101.136 115.298C99.8972 116.319 98.7784 117.533 97.5239 118.523C94.6373 120.798 91.6993 122.988 88.6132 125.262Z" fill="#4DB1F1"/>
<path d="M87.6211 126.96C87.708 126.675 87.9305 126.326 88.2905 125.92C88.2054 126.206 87.9811 126.552 87.6211 126.96Z" fill="#4DB1F1"/>
<path d="M109.17 40.4934C109.164 39.5302 109.159 38.5671 109.152 37.365C109.364 33.1843 108.138 29.7786 106.025 26.7944C104.798 25.0618 105.595 24.3001 106.898 23.6407C108.388 22.8878 110.076 22.4662 111.354 21.393C113.401 19.6747 115.002 17.2189 117.121 15.6624C119.779 13.7075 122.781 12.3712 125.613 10.7211C128.031 9.31214 130.447 7.88996 132.808 6.361C133.696 5.7853 134.427 4.89148 135.278 3.95473C140.929 3.7632 146.535 3.7588 152.35 3.95693C151.545 6.90477 150.462 9.62145 149.552 12.4119C149.255 13.3244 149.184 14.4945 149.398 15.4302C149.838 17.3499 149.348 18.771 148.08 19.9268C143.991 23.6562 140.106 27.8181 134.511 28.4092C134.043 28.4577 133.612 28.8584 133.145 29.0246C131.362 29.6564 129.569 30.2552 127.784 30.8749C125.145 31.7897 121.583 31.0599 121.08 35.8053C121.064 35.9561 120.894 36.1597 120.759 36.2092C118.442 37.0656 115.961 38.9127 113.839 38.4757C111.467 37.9859 110.331 38.5869 109.17 40.4934Z" fill="#57BFF7"/>
<path d="M107.389 3.70815C108.004 2.31458 108.956 2.29917 110.086 3.52762C109.312 3.70484 108.458 3.71255 107.389 3.70815Z" fill="#6BD2EF"/>
<path d="M104.898 3.70785C105.175 3.59687 105.641 3.49907 106.165 3.54742C105.844 3.70236 105.466 3.71115 104.898 3.70785Z" fill="#6BD2EF"/>
<path d="M109.147 40.6926C110.331 38.5868 111.466 37.9858 113.839 38.4757C115.961 38.9127 118.442 37.0656 120.759 36.2092C120.894 36.1597 121.064 35.956 121.08 35.8052C121.583 31.0598 125.145 31.7896 127.784 30.8749C129.569 30.2552 131.362 29.6564 133.144 29.0245C133.612 28.8583 134.043 28.4576 134.511 28.4092C140.106 27.8181 143.991 23.6561 148.08 19.9268C149.348 18.771 149.838 17.3499 149.398 15.4301C149.183 14.4945 149.255 13.3244 149.552 12.4119C150.462 9.62142 151.545 6.90476 152.582 3.96573C156.572 3.94371 160.54 4.11543 164.826 4.40493C165.408 4.63279 165.671 4.74285 165.935 4.85403C169.367 5.04226 172.802 5.19968 176.231 5.45065C176.843 5.49468 177.432 5.93059 178.149 6.59434C178.371 7.93397 178.452 8.8696 178.586 9.79534C179.421 15.527 177.352 19.8497 172.74 22.2306C171.712 22.7612 170.593 23.4437 169.928 24.4233C168.795 26.0921 167.812 26.845 165.87 25.9446C164.44 25.2819 162.43 27.4747 162.175 29.5782C161.88 32.0087 163.694 31.2514 164.692 31.6454C166.564 32.3841 168.467 33.0203 170.358 33.6995C168.016 33.7039 165.643 33.4243 163.341 33.771C158.084 34.5625 152.753 35.2042 147.662 36.7893C144.064 37.9088 140.81 40.4735 137.34 42.5716C125.673 50.879 119.148 63.0854 115.811 77.8543C115.668 78.4861 115.469 79.1025 115.195 79.9017C113.881 78.1614 113.421 75.1838 110.852 75.066C109.046 74.9824 107.222 75.8047 105.388 76.016C102.661 76.3308 102.966 78.7899 102.545 80.8252C102.403 81.5077 101.928 82.0988 101.448 82.8143C101.622 80.2847 100.541 78.5852 98.4566 77.3413C98.0771 77.0782 97.8422 76.9153 97.4751 76.7029C96.7978 76.3374 96.2526 76.0226 95.5354 75.7408C94.4414 75.5086 93.5229 75.0275 92.5982 75.0099C88.2435 74.9251 83.8861 74.9681 79.2335 74.7798C77.4453 72.3857 75.3646 72.6532 73.3078 72.8513C72.1695 72.9603 71.0196 73.3081 69.899 73.2058C66.8191 72.9251 65.4344 71.5161 65.2517 68.7752C69.8387 68.6794 74.455 68.9216 79.0039 68.3921C83.6529 67.8506 85.0847 65.6435 85.4589 59.9735C84.8347 57.7841 84.5333 55.5628 83.5164 53.9237C81.7291 51.043 81.558 50.0337 83.6131 47.1684C83.809 46.8954 83.8622 46.487 84.0076 45.9553C88.9572 45.7319 93.8811 45.6956 99.1232 45.8332C100.645 47.0066 101.781 47.2036 102.766 45.6328C103.136 45.6196 103.506 45.6064 104.061 45.5833C107.003 45.5591 108.063 43.2232 109.147 40.6926Z" fill="#50B8F5"/>
<path d="M51.6148 46.2675C54.4411 46.0664 57.4421 45.984 60.6168 46.0159C57.7905 46.2148 54.7895 46.3005 51.6148 46.2675Z" fill="#6BD2EF"/>
<path d="M40.7466 46.2665C41.9479 46.0774 43.3123 46.0005 44.8371 46.0412C43.6358 46.2313 42.2723 46.306 40.7466 46.2665Z" fill="#6BD2EF"/>
<path d="M32.851 46.2709C34.0523 46.0807 35.4166 46.0027 36.9424 46.0412C35.7402 46.2335 34.3767 46.3082 32.851 46.2709Z" fill="#6BD2EF"/>
<path d="M65.8732 46.229C66.3164 46.0543 66.8838 45.9873 67.5753 46.0203C67.133 46.1928 66.5647 46.2653 65.8732 46.229Z" fill="#6BD2EF"/>
<path d="M207.312 56.1594C205.931 54.5831 204.578 52.7305 203.1 51.02C201.215 48.8393 199.229 46.7732 197.098 44.3967C196.612 43.8672 196.314 43.5975 196.016 43.3289C196.016 43.3289 196.019 43.3201 195.978 43.1319C195.738 42.5408 195.586 42.0917 195.332 41.7406C193.082 38.6199 193.269 37.5863 196.25 35.5136C197.193 34.8575 197.948 33.836 198.763 32.951C199.88 31.7412 200.922 30.4368 202.085 29.292C203.809 27.5969 205.754 26.1681 207.338 24.3254C209.016 22.3738 210.726 21.9423 212.86 22.9792C213.451 23.2665 214.113 23.3634 214.743 23.5472C215.661 24.4047 216.58 25.2633 217.653 26.429C218.274 27.1764 218.738 27.6178 219.203 28.0592C220.618 29.4076 222.121 30.6526 223.425 32.1298C225.198 34.1365 226.817 36.3193 228.548 38.7993C228.595 39.4212 228.596 39.67 228.597 39.9199C225.712 38.7542 223.62 39.703 221.843 42.6278C219.929 45.7792 217.264 47.929 213.887 48.8515C212.146 49.3281 210.429 50.0491 208.804 50.9132C206.901 51.9248 206.689 53.828 207.312 56.1594Z" fill="#44A5ED"/>
<path d="M228.755 39.9265C228.596 39.67 228.595 39.4212 228.594 38.9853C228.884 39.0756 229.174 39.3541 229.503 39.7966C229.333 39.9518 229.122 39.943 228.755 39.9265Z" fill="#4DB1F1"/>
<path d="M102.548 45.6163C101.781 47.2036 100.645 47.0066 99.352 45.8354C100.286 45.6427 101.308 45.6218 102.548 45.6163Z" fill="#6BD2EF"/>
<path d="M97.6737 88.568C97.5443 88.7661 97.2783 88.9995 96.9131 89.1569C97.0549 88.9202 97.2951 88.7617 97.6737 88.568Z" fill="#50B8F5"/>
<path d="M99.1347 87.443C99.0319 87.7292 98.7907 88.077 98.4007 88.47C98.5 88.1783 98.7482 87.8415 99.1347 87.443Z" fill="#50B8F5"/>
<path d="M101.153 84.7065C101.154 84.9354 101.067 85.2866 100.857 85.6685C100.845 85.4088 100.954 85.1193 101.153 84.7065Z" fill="#50B8F5"/>
<path d="M214.656 23.382C214.113 23.3633 213.451 23.2665 212.86 22.9792C210.726 21.9423 209.016 22.3738 207.338 24.3254C205.754 26.1681 203.809 27.5969 202.085 29.292C200.922 30.4368 199.88 31.7412 198.763 32.951C197.948 33.836 197.193 34.8575 196.25 35.5135C193.269 37.5863 193.082 38.6199 195.332 41.7405C195.586 42.0917 195.738 42.5408 195.974 43.1341C194.803 42.8116 193.595 42.2975 192.226 41.702C189.55 40.1455 187.036 38.6705 184.346 37.1592C182.981 36.7453 181.792 36.3699 180.337 35.7942C177.984 34.9687 175.897 34.3412 173.809 33.7149C173.591 33.7138 173.372 33.7127 172.879 33.6125C172.186 33.5773 171.767 33.64 171.348 33.7028C171.128 33.7028 170.908 33.7028 170.522 33.7017C168.467 33.0203 166.564 32.3841 164.692 31.6455C163.694 31.2514 161.88 32.0087 162.175 29.5782C162.43 27.4747 164.44 25.282 165.87 25.9446C167.812 26.845 168.795 26.0921 169.928 24.4234C170.593 23.4437 171.712 22.7612 172.74 22.2307C177.352 19.8497 179.421 15.527 178.586 9.79536C178.452 8.86962 178.371 7.93398 178.269 6.75287C182.58 7.44194 186.889 8.38089 191.515 9.49926C193.4 10.3292 194.967 10.9809 196.535 11.6314C196.918 11.7998 197.3 11.9672 197.833 12.1686C203.023 15.3938 208.069 18.575 213.094 21.7959C213.645 22.1492 214.081 22.7381 214.656 23.382Z" fill="#4DB1F1"/>
<path d="M196.481 11.4421C194.967 10.9809 193.4 10.3292 191.704 9.54658C193.454 9.12389 195.249 9.12059 196.481 11.4421Z" fill="#60BBEF"/>
<path d="M165.895 4.72359C165.671 4.74454 165.408 4.63317 165.036 4.41705C165.238 4.40492 165.547 4.49865 165.895 4.72359Z" fill="#5BC3F7"/>
<path d="M65.0195 68.7697C65.4344 71.5161 66.8192 72.9251 69.899 73.2058C71.0196 73.3081 72.1695 72.9603 73.3078 72.8513C75.3646 72.6532 77.4453 72.3857 79.003 74.7766C60.4706 74.9648 41.8716 74.9692 23.0431 74.9725C22.6433 73.6219 22.4739 72.2712 22.3019 70.6828C23.6965 69.8826 25.0901 68.8468 26.4918 68.8325C39.2563 68.7081 52.0226 68.762 65.0195 68.7697Z" fill="#57BFF7"/>
<path d="M219.165 27.8798C218.738 27.6178 218.274 27.1764 217.767 26.5589C218.192 26.8219 218.659 27.2611 219.165 27.8798Z" fill="#4DB1F1"/>
<path d="M173.888 33.8954C175.897 34.3412 177.984 34.9687 180.151 35.7766C178.142 35.3297 176.054 34.7023 173.888 33.8954Z" fill="#50B8F5"/>
<path d="M171.458 33.8004C171.767 33.64 172.186 33.5762 172.715 33.6114C172.405 33.7718 171.987 33.8356 171.458 33.8004Z" fill="#50B8F5"/>
<path d="M196.044 43.5039C196.314 43.5975 196.612 43.8672 196.958 44.2976C196.916 44.6025 196.812 44.7335 196.606 44.9305C196.368 44.5684 196.22 44.1237 196.044 43.5039Z" fill="#4DB1F1"/>
<path d="M243.69 57.0322C243.564 57.0377 243.545 56.9078 243.638 56.712C243.678 56.6592 243.724 56.91 243.69 57.0322Z" fill="#4DB1F1"/>
</g>
<defs>
<clipPath id="clip0_1_4">
<rect width="244" height="180" fill="white"/>
</clipPath>
</defs>
</svg>
